<svg width="20" height="18" viewBox="0 0 20 18" fill="none" xmlns="http://www.w3.org/2000/svg">
<path fill-rule="evenodd" clip-rule="evenodd" d="M16 0H4C1.79086 0 0 1.79086 0 4V12C0 14.2091 1.79086 16 4 16H16C18.2091 16 20 14.2091 20 12V4C20 1.79086 18.2091 0 16 0ZM4 1.5H16C17.3807 1.5 18.5 2.61929 18.5 4V12C18.5 13.3807 17.3807 14.5 16 14.5H4C2.61929 14.5 1.5 13.3807 1.5 12V4C1.5 2.61929 2.61929 1.5 4 1.5Z" fill="white"/>
<path d="M8 16.25C7.58579 16.25 7.25 16.5858 7.25 17C7.25 17.4142 7.58579 17.75 8 17.75H12C12.4142 17.75 12.75 17.4142 12.75 17C12.75 16.5858 12.4142 16.25 12 16.25H8Z" fill="white"/>
</svg>
