<svg width="27" height="24" viewBox="0 0 27 24" fill="none" xmlns="http://www.w3.org/2000/svg">
<path d="M15.8036 6.42413C15.6907 5.97283 15.2816 5.65893 14.8165 5.66681C14.3513 5.67469 13.9531 6.00227 13.8556 6.45714L12.6719 11.9814L11.7912 9.04598C11.6734 8.65329 11.3279 8.37229 10.9194 8.33704C10.5109 8.30178 10.1223 8.51942 9.93899 8.88612L8.88205 11H6.83342C6.28113 11 5.83342 11.4477 5.83342 12C5.83342 12.5523 6.28113 13 6.83342 13H9.50008C9.87885 13 10.2251 12.786 10.3945 12.4472L10.6002 12.0359L11.8756 16.2873C12.0068 16.7246 12.4174 17.0175 12.8736 16.9992C13.3297 16.9809 13.7156 16.6559 13.8112 16.2095L14.9084 11.0895L15.1966 12.2425C15.3079 12.6877 15.7079 13 16.1667 13H20.1667C20.719 13 21.1667 12.5523 21.1667 12C21.1667 11.4477 20.719 11 20.1667 11H16.9475L15.8036 6.42413Z" fill="white"/>
<path fill-rule="evenodd" clip-rule="evenodd" d="M12.3111 23.0105C13.0538 23.4409 13.9464 23.4409 14.6891 23.0105C17.6626 21.2872 25.2766 16.4019 26.578 10.8906C27.7533 5.91408 24.7706 0.743287 19.7199 0.668979C19.6157 0.667445 19.5099 0.666664 19.4025 0.666664C17.3693 0.666664 15.5541 1.68223 14.49 2.43306C13.9086 2.84325 13.0916 2.84325 12.5102 2.43306C11.446 1.68223 9.63086 0.666664 7.59765 0.666664C7.49029 0.666664 7.38449 0.667445 7.28023 0.668979C2.22952 0.743287 -0.753097 5.91408 0.422116 10.8906C1.72361 16.4019 9.33756 21.2872 12.3111 23.0105ZM24.6316 10.431C24.1311 12.5504 22.3122 14.8006 19.9462 16.8636C17.6446 18.8704 15.1199 20.4492 13.6862 21.2801C13.5638 21.3511 13.4364 21.3511 13.3139 21.2801C11.8803 20.4492 9.35559 18.8704 7.05397 16.8636C4.68793 14.8006 2.86909 12.5504 2.36858 10.431C1.39261 6.29813 3.91868 2.71865 7.30965 2.66876C7.40399 2.66737 7.49998 2.66666 7.59765 2.66666C9.01256 2.66666 10.4107 3.39942 11.3572 4.06724C12.6299 4.96519 14.3703 4.96519 15.643 4.06725C16.5895 3.39942 17.9876 2.66666 19.4025 2.66666C19.5002 2.66666 19.5962 2.66737 19.6905 2.66876C23.0815 2.71865 25.6076 6.29813 24.6316 10.431Z" fill="white"/>
</svg>
