<svg width="26" height="18" viewBox="0 0 26 18" fill="none" xmlns="http://www.w3.org/2000/svg">
<path d="M7.27699 17.3306C7.45937 16.8105 7.18658 16.2412 6.66756 16.0572L6.66439 16.056L6.63596 16.0452C6.6079 16.0343 6.56219 16.0159 6.50134 15.9896C6.37947 15.9369 6.19795 15.8526 5.97667 15.7326C5.5324 15.4917 4.93822 15.1125 4.34584 14.5643C4.22964 14.4568 4.11337 14.3427 3.99821 14.2218C2.95383 13.1248 2 11.4626 2 8.99968C2 6.53703 2.95359 4.87496 3.99781 3.778C4.1131 3.65689 4.2295 3.54266 4.34584 3.435C4.93822 2.88685 5.5324 2.50766 5.97667 2.26677C6.19795 2.14678 6.37947 2.0625 6.50134 2.00976C6.56219 1.98342 6.6079 1.96507 6.63596 1.95415L6.66439 1.94333L6.66766 1.94213C7.18661 1.75808 7.45935 1.18879 7.27699 0.668758C7.09423 0.147589 6.52359 -0.126747 6.00242 0.056015L5.91091 0.0901985C6.00028 0.0567646 6.00242 0.056015 6.00242 0.056015L6.00028 0.0567646L5.99765 0.0576954L5.99092 0.0601044L5.97167 0.0671234C5.95632 0.0727921 5.93596 0.0804596 5.91091 0.0901985C5.86085 0.109674 5.79198 0.137486 5.707 0.174265C5.5372 0.247746 5.30205 0.357468 5.02333 0.508595C4.72496 0.670383 4.37372 0.881218 3.99771 1.14791C3.67338 1.37794 3.33063 1.64953 2.98749 1.96705C1.49088 3.35192 0 5.60449 0 8.99968C0 12.3949 1.49088 14.6474 2.98749 16.0323C3.33084 16.35 3.67381 16.6217 3.99831 16.8519C4.37409 17.1184 4.72512 17.3291 5.02333 17.4908C5.30205 17.6419 5.5372 17.7516 5.707 17.8251C5.79198 17.8619 5.86085 17.8897 5.91091 17.9091C5.93596 17.9189 5.95632 17.9266 5.97167 17.9322L5.99092 17.9392L5.99765 17.9417L6.00028 17.9426L6.00242 17.9433C6.52359 18.1261 7.09423 17.8518 7.27699 17.3306Z" fill="white"/>
<path d="M9.33258 12.0565L9.33783 12.0585C9.8545 12.2438 10.1256 12.8117 9.94366 13.3306C9.7609 13.8518 9.19025 14.1261 8.66908 13.9433L8.66707 13.9426L8.6648 13.9418L8.65952 13.9399L8.64599 13.935L8.60753 13.9204C8.57699 13.9085 8.53677 13.8923 8.48825 13.8713C8.39137 13.8293 8.26038 13.7681 8.10667 13.6848C7.80093 13.519 7.39511 13.2602 6.98749 12.883C6.15755 12.115 5.33333 10.8624 5.33333 8.99968C5.33333 7.13693 6.15755 5.88435 6.98749 5.11638C7.39511 4.73919 7.80093 4.48038 8.10667 4.3146C8.26038 4.23125 8.39137 4.17003 8.48825 4.1281C8.53677 4.1071 8.57699 4.09083 8.60753 4.07895L8.64599 4.06435L8.65952 4.05942L8.6648 4.05753L8.66707 4.05673L8.66908 4.05602C9.19025 3.87326 9.7609 4.14759 9.94366 4.66876C10.1256 5.18762 9.85451 5.75552 9.33783 5.94089L9.33258 5.9429L9.31876 5.9484C9.3096 5.95211 9.29746 5.95715 9.28259 5.96359C9.23363 5.98478 9.15628 6.02056 9.06 6.07277C8.86574 6.1781 8.60489 6.34462 8.34584 6.58433C7.84245 7.05013 7.33333 7.79756 7.33333 8.99968C7.33333 10.2018 7.84245 10.9492 8.34584 11.415C8.60489 11.6547 8.86574 11.8213 9.06 11.9266C9.15628 11.9788 9.23363 12.0146 9.28259 12.0358C9.30698 12.0463 9.32405 12.0531 9.33258 12.0565Z" fill="white"/>
<path d="M11.6667 8.99968C11.6667 9.73606 12.2636 10.333 13 10.333C13.7364 10.333 14.3333 9.73606 14.3333 8.99968C14.3333 8.2633 13.7364 7.66634 13 7.66634C12.2636 7.66634 11.6667 8.2633 11.6667 8.99968Z" fill="white"/>
<path d="M18.723 17.3312C18.5406 16.8112 18.8134 16.2418 19.3324 16.0578L19.3356 16.0567L19.364 16.0459C19.3921 16.0349 19.4378 16.0166 19.4987 15.9902C19.6205 15.9375 19.8021 15.8532 20.0233 15.7332C20.4676 15.4923 21.0618 15.1132 21.6542 14.565C21.7704 14.4575 21.8866 14.3434 22.0018 14.2224C23.0462 13.1255 24 11.4633 24 9.00033C24 6.53768 23.0464 4.87561 22.0022 3.77866C21.8869 3.65754 21.7705 3.54331 21.6542 3.43566C21.0618 2.88751 20.4676 2.50831 20.0233 2.26742C19.8021 2.14744 19.6205 2.06315 19.4987 2.01041C19.4378 1.98408 19.3921 1.96572 19.364 1.95481L19.3356 1.94398L19.3323 1.94279C18.8134 1.75874 18.5406 1.18944 18.723 0.669411C18.9058 0.148243 19.4764 -0.126095 19.9976 0.0566673L20.0891 0.0908527C19.9997 0.0574188 19.9976 0.0566673 19.9976 0.0566673L19.9997 0.0574188L20.0023 0.0583496L20.0091 0.0607567L20.0283 0.0677757C20.0437 0.0734444 20.064 0.0811119 20.0891 0.0908527C20.1392 0.110329 20.208 0.13814 20.293 0.174919C20.4628 0.2484 20.698 0.35812 20.9767 0.509249C21.275 0.671036 21.6263 0.881872 22.0023 1.14856C22.3266 1.3786 22.6694 1.65018 23.0125 1.9677C24.5091 3.35257 26 5.60515 26 9.00033C26 12.3955 24.5091 14.6481 23.0125 16.033C22.6692 16.3507 22.3262 16.6224 22.0017 16.8525C21.6259 17.119 21.2749 17.3297 20.9767 17.4914C20.698 17.6425 20.4628 17.7523 20.293 17.8257C20.208 17.8625 20.1392 17.8903 20.0891 17.9098C20.064 17.9195 20.0437 17.9272 20.0283 17.9329L20.0091 17.9399L20.0023 17.9423L19.9997 17.9432L19.9976 17.944C19.4764 18.1268 18.9058 17.8524 18.723 17.3312Z" fill="white"/>
<path d="M16.6674 12.0571L16.6622 12.0591C16.1455 12.2445 15.8744 12.8124 16.0563 13.3312C16.2391 13.8524 16.8097 14.1267 17.3309 13.944L17.3329 13.9433L17.3352 13.9425L17.3405 13.9406L17.354 13.9357L17.3925 13.9211C17.423 13.9092 17.4632 13.8929 17.5118 13.8719C17.6086 13.83 17.7396 13.7688 17.8933 13.6854C18.1991 13.5196 18.6049 13.2608 19.0125 12.8836C19.8425 12.1157 20.6667 10.8631 20.6667 9.00033C20.6667 7.13758 19.8425 5.88501 19.0125 5.11703C18.6049 4.73984 18.1991 4.48103 17.8933 4.31525C17.7396 4.2319 17.6086 4.17068 17.5118 4.12875C17.4632 4.10775 17.423 4.09149 17.3925 4.07961L17.354 4.065L17.3405 4.06007L17.3352 4.05818L17.3329 4.05738L17.3309 4.05667C16.8097 3.87391 16.2391 4.14824 16.0563 4.66941C15.8744 5.18827 16.1455 5.75618 16.6622 5.94154L16.6674 5.94356L16.6812 5.94905C16.6904 5.95276 16.7025 5.95781 16.7174 5.96424C16.7664 5.98543 16.8437 6.02121 16.94 6.07342C17.1343 6.17875 17.3951 6.34528 17.6542 6.58498C18.1575 7.05079 18.6667 7.79821 18.6667 9.00033C18.6667 10.2024 18.1575 10.9499 17.6542 11.4157C17.3951 11.6554 17.1343 11.8219 16.94 11.9272C16.8437 11.9794 16.7664 12.0152 16.7174 12.0364C16.693 12.047 16.676 12.0538 16.6674 12.0571Z" fill="white"/>
<path d="M14.3333 8.99968C14.3333 9.73606 13.7364 10.333 13 10.333C12.2636 10.333 11.6667 9.73606 11.6667 8.99968C11.6667 8.2633 12.2636 7.66634 13 7.66634C13.7364 7.66634 14.3333 8.2633 14.3333 8.99968Z" fill="white"/>
</svg>
